<svg xmlns="http://www.w3.org/2000/svg" width="1000" height="1000" viewBox="0 0 1000 1000">
  <defs>
    <style>
      .cls-1 {
        fill-rule: evenodd;
		fill:#32c832;
      }
    </style>
  </defs>
  <path id="done_modifier" data-name="done modifier" class="cls-1" d="M712.748,388.86L478.565,684.543s-26.762,36.623-64.523-2.875c-34.079-35.634-128.428-148.151-128.428-148.151S264.123,506.2,296.072,476.01c26.954-25.467,47.641-15.11,54.047-8.719,10.47,10.448,77.873,78.418,77.873,78.418s8.129,8.134,20.326-5.226L654.045,334.844s25.012-23.259,52.9,1.726C735.776,362.391,712.748,388.86,712.748,388.86ZM500,175a323.673,323.673,0,1,1-126.474,25.5A322.87,322.87,0,0,1,500,175m0-100C265.279,75,75,265.279,75,500S265.279,925,500,925,925,734.721,925,500,734.721,75,500,75h0Z"/>
</svg>
