<svg xmlns="http://www.w3.org/2000/svg" width="1000" height="1000" viewBox="0 0 1000 1000">
  <defs>
    <style>
      .cls-1 {
        fill-rule: evenodd;
		fill: #f16e00;
      }
    </style>
  </defs>
  <path id="clock_wht" data-name="clock wht" class="cls-1" d="M672.517,665.517a37.5,37.5,0,0,1-53.034,0l-146.5-146.5c-0.021-.022-0.04-0.044-0.061-0.065q-0.623-.626-1.215-1.278c-0.2-.225-0.395-0.456-0.593-0.684s-0.407-.464-0.6-0.7c-0.239-.292-0.466-0.59-0.7-0.886-0.141-.183-0.286-0.362-0.424-0.548-0.243-.327-0.474-0.659-0.705-0.992-0.115-.165-0.233-0.328-0.346-0.5-0.23-.342-0.447-0.689-0.665-1.037-0.106-.169-0.214-0.337-0.317-0.508-0.206-.341-0.4-0.686-0.594-1.033-0.107-.19-0.216-0.379-0.319-0.571-0.174-.326-0.34-0.655-0.5-0.985-0.112-.224-0.226-0.447-0.334-0.674-0.142-.3-0.277-0.606-0.411-0.911-0.116-.263-0.234-0.526-0.344-0.792s-0.218-.545-0.323-0.819c-0.119-.306-0.237-0.612-0.348-0.922-0.085-.239-0.164-0.48-0.244-0.72-0.116-.348-0.231-0.695-0.337-1.046-0.064-.213-0.122-0.427-0.182-0.64-0.107-.378-0.212-0.755-0.307-1.137-0.049-.2-0.092-0.4-0.139-0.6-0.091-.394-0.181-0.788-0.259-1.187-0.041-.2-0.073-0.409-0.11-0.613-0.07-.393-0.141-0.785-0.2-1.181-0.035-.237-0.06-0.474-0.09-0.711-0.047-.365-0.1-0.729-0.132-1.1-0.031-.314-0.049-0.629-0.072-0.943-0.021-.3-0.048-0.587-0.063-0.883-0.03-.618-0.047-1.236-0.047-1.854v-275a37.5,37.5,0,0,1,75,0V476.967L672.517,612.483A37.5,37.5,0,0,1,672.517,665.517ZM500,75c234.721,0,425,190.279,425,425S734.721,925,500,925,75,734.721,75,500,265.279,75,500,75Zm0,75c193.3,0,350,156.7,350,350S693.3,850,500,850,150,693.3,150,500,306.7,150,500,150Z"/>
</svg>
